$MeshFormat
4.1 0 8
$EndMeshFormat
$Entities
8 12 6 1
1 0 0 0.35 0 
2 0 0 0 0 
3 0 2.5 0.35 0 
4 0 2.5 0 0 
5 58.5 0 0.35 0 
6 58.5 0 0 0 
7 58.5 2.5 0.35 0 
8 58.5 2.5 0 0 
1 -1e-07 -1e-07 -1.000000000028756e-07 1e-07 1e-07 0.3500001 0 2 2 -1 
2 -1e-07 -1.000000000583867e-07 0.3499999 1e-07 2.5000001 0.3500001 0 2 1 -3 
3 -1e-07 2.4999999 -1.000000000028756e-07 1e-07 2.5000001 0.3500001 0 2 4 -3 
4 -1e-07 -1.000000000583867e-07 -1e-07 1e-07 2.5000001 1e-07 0 2 2 -4 
5 58.4999999 -1e-07 -1.000000000028756e-07 58.5000001 1e-07 0.3500001 0 2 6 -5 
6 58.4999999 -1.000000000583867e-07 0.3499999 58.5000001 2.5000001 0.3500001 0 2 5 -7 
7 58.4999999 2.4999999 -1.000000000028756e-07 58.5000001 2.5000001 0.3500001 0 2 8 -7 
8 58.4999999 -1.000000000583867e-07 -1e-07 58.5000001 2.5000001 1e-07 0 2 6 -8 
9 -1.000000011686097e-07 -1e-07 -1e-07 58.5000001 1e-07 1e-07 0 2 2 -6 
10 -1.000000011686097e-07 -1e-07 0.3499999 58.5000001 1e-07 0.3500001 0 2 1 -5 
11 -1.000000011686097e-07 2.4999999 -1e-07 58.5000001 2.5000001 1e-07 0 2 4 -8 
12 -1.000000011686097e-07 2.4999999 0.3499999 58.5000001 2.5000001 0.3500001 0 2 3 -7 
1 -1e-07 -1.000000000583867e-07 -1.000000000028756e-07 1e-07 2.5000001 0.3500001 0 4 -1 4 3 -2 
2 58.4999999 -1.000000000583867e-07 -1.000000000028756e-07 58.5000001 2.5000001 0.3500001 0 4 -5 8 7 -6 
3 -1.000000011686097e-07 -1e-07 -1.000000000028756e-07 58.5000001 1e-07 0.3500001 0 4 -9 1 10 -5 
4 -1.000000011686097e-07 2.4999999 -1.000000000028756e-07 58.5000001 2.5000001 0.3500001 0 4 -11 3 12 -7 
5 -1.000000011686097e-07 -1.000000000583867e-07 -1e-07 58.5000001 2.5000001 1e-07 0 4 -4 9 8 -11 
6 -1.000000011686097e-07 -1.000000000583867e-07 0.3499999 58.5000001 2.5000001 0.3500001 0 4 -2 10 6 -12 
1 -1.000000011686097e-07 -1.000000000583867e-07 -1.000000000028756e-07 58.5000001 2.5000001 0.3500001 0 6 -1 2 -3 4 -5 6 
$EndEntities
$Nodes
27 64 1 64
0 1 0 1
1
0 0 0.35
0 2 0 1
2
0 0 0
0 3 0 1
3
0 2.5 0.35
0 4 0 1
4
0 2.5 0
0 5 0 1
5
58.5 0 0.35
0 6 0 1
6
58.5 0 0
0 7 0 1
7
58.5 2.5 0.35
0 8 0 1
8
58.5 2.5 0
1 1 0 0
1 2 0 0
1 3 0 0
1 4 0 0
1 5 0 0
1 6 0 0
1 7 0 0
1 8 0 0
1 9 0 9
9
10
11
12
13
14
15
16
17
5.850000000000007 0 0
11.70000000000001 0 0
17.55000000000004 0 0
23.40000000000006 0 0
29.25000000000005 0 0
35.10000000000004 0 0
40.95000000000003 0 0
46.80000000000002 0 0
52.65000000000001 0 0
1 10 0 9
18
19
20
21
22
23
24
25
26
5.850000000000007 0 0.35
11.70000000000001 0 0.35
17.55000000000004 0 0.35
23.40000000000006 0 0.35
29.25000000000005 0 0.35
35.10000000000004 0 0.35
40.95000000000003 0 0.35
46.80000000000002 0 0.35
52.65000000000001 0 0.35
1 11 0 9
27
28
29
30
31
32
33
34
35
5.850000000000007 2.5 0
11.70000000000001 2.5 0
17.55000000000004 2.5 0
23.40000000000006 2.5 0
29.25000000000005 2.5 0
35.10000000000004 2.5 0
40.95000000000003 2.5 0
46.80000000000002 2.5 0
52.65000000000001 2.5 0
1 12 0 9
36
37
38
39
40
41
42
43
44
5.850000000000007 2.5 0.35
11.70000000000001 2.5 0.35
17.55000000000004 2.5 0.35
23.40000000000006 2.5 0.35
29.25000000000005 2.5 0.35
35.10000000000004 2.5 0.35
40.95000000000003 2.5 0.35
46.80000000000002 2.5 0.35
52.65000000000001 2.5 0.35
2 1 0 0
2 2 0 0
2 3 0 0
2 4 0 0
2 5 0 10
45
46
47
48
49
50
51
52
53
54
43.87500000000002 1.25 0
49.72500000000001 1.25 0
55.57500000000001 1.25 0
38.02500000000003 1.25 0
2.925000000000003 1.25 0
14.62500000000002 1.25 0
20.47500000000005 1.25 0
32.17500000000004 1.25 0
8.775000000000009 1.25 0
26.32500000000006 1.25 0
2 6 0 10
55
56
57
58
59
60
61
62
63
64
43.87500000000002 1.25 0.35
55.57500000000001 1.25 0.35
38.02500000000004 1.25 0.35
2.925000000000003 1.25 0.35
14.62500000000002 1.25 0.35
20.47500000000005 1.25 0.35
8.775000000000009 1.25 0.35
32.17500000000004 1.25 0.35
49.72500000000002 1.25 0.35
26.32500000000006 1.25 0.35
3 1 0 0
$EndNodes
$Elements
27 300 1 300
0 1 15 1
1 1 
0 2 15 1
2 2 
0 3 15 1
3 3 
0 4 15 1
4 4 
0 5 15 1
5 5 
0 6 15 1
6 6 
0 7 15 1
7 7 
0 8 15 1
8 8 
1 1 1 1
9 2 1 
1 2 1 1
10 1 3 
1 3 1 1
11 4 3 
1 4 1 1
12 2 4 
1 5 1 1
13 6 5 
1 6 1 1
14 5 7 
1 7 1 1
15 8 7 
1 8 1 1
16 6 8 
1 9 1 10
17 2 9 
18 9 10 
19 10 11 
20 11 12 
21 12 13 
22 13 14 
23 14 15 
24 15 16 
25 16 17 
26 17 6 
1 10 1 10
27 1 18 
28 18 19 
29 19 20 
30 20 21 
31 21 22 
32 22 23 
33 23 24 
34 24 25 
35 25 26 
36 26 5 
1 11 1 10
37 4 27 
38 27 28 
39 28 29 
40 29 30 
41 30 31 
42 31 32 
43 32 33 
44 33 34 
45 34 35 
46 35 8 
1 12 1 10
47 3 36 
48 36 37 
49 37 38 
50 38 39 
51 39 40 
52 40 41 
53 41 42 
54 42 43 
55 43 44 
56 44 7 
2 1 2 2
57 3 2 1 
58 3 4 2 
2 2 2 2
59 7 5 6 
60 7 6 8 
2 3 2 20
61 2 18 1 
62 18 2 9 
63 26 6 5 
64 6 26 17 
65 19 9 10 
66 19 18 9 
67 20 10 11 
68 20 19 10 
69 21 11 12 
70 21 20 11 
71 22 12 13 
72 22 21 12 
73 23 13 14 
74 23 22 13 
75 15 23 14 
76 25 15 16 
77 24 23 15 
78 25 24 15 
79 26 16 17 
80 26 25 16 
2 4 2 20
81 27 4 3 
82 3 36 27 
83 44 7 8 
84 8 35 44 
85 37 28 27 
86 27 36 37 
87 38 29 28 
88 38 28 37 
89 30 29 38 
90 40 31 30 
91 39 30 38 
92 40 30 39 
93 41 32 31 
94 41 31 40 
95 42 33 32 
96 42 32 41 
97 34 33 42 
98 44 35 34 
99 43 34 42 
100 44 34 43 
2 5 2 40
101 2 4 49 
102 9 2 49 
103 4 27 49 
104 8 6 47 
105 6 17 47 
106 35 8 47 
107 10 9 53 
108 27 9 49 
109 9 27 53 
110 11 10 50 
111 10 28 50 
112 28 10 53 
113 12 11 51 
114 29 11 50 
115 11 29 51 
116 13 12 54 
117 30 12 51 
118 12 30 54 
119 14 13 52 
120 13 31 52 
121 31 13 54 
122 15 14 48 
123 14 32 48 
124 32 14 52 
125 16 15 45 
126 15 33 45 
127 33 15 48 
128 17 16 46 
129 34 16 45 
130 16 34 46 
131 35 17 46 
132 17 35 47 
133 27 28 53 
134 28 29 50 
135 29 30 51 
136 30 31 54 
137 31 32 52 
138 32 33 48 
139 33 34 45 
140 34 35 46 
2 6 2 40
141 1 58 3 
142 18 58 1 
143 3 58 36 
144 7 56 5 
145 5 56 26 
146 44 56 7 
147 19 61 18 
148 36 58 18 
149 18 61 36 
150 20 59 19 
151 19 59 37 
152 37 61 19 
153 21 60 20 
154 38 59 20 
155 20 60 38 
156 22 64 21 
157 39 60 21 
158 21 64 39 
159 23 62 22 
160 22 62 40 
161 40 64 22 
162 24 57 23 
163 23 57 41 
164 41 62 23 
165 25 55 24 
166 24 55 42 
167 42 57 24 
168 26 63 25 
169 43 55 25 
170 25 63 43 
171 26 56 44 
172 44 63 26 
173 36 61 37 
174 37 59 38 
175 38 60 39 
176 39 64 40 
177 40 62 41 
178 41 57 42 
179 42 55 43 
180 43 63 44 
3 1 4 120
181 51 39 38 60 
182 32 33 57 48 
183 24 25 45 55 
184 11 60 21 51 
185 9 2 58 49 
186 30 54 40 64 
187 41 62 31 52 
188 13 62 23 52 
189 30 38 51 39 
190 50 29 28 38 
191 38 30 51 29 
192 18 2 1 58 
193 4 3 49 27 
194 23 15 57 24 
195 33 57 42 32 
196 8 44 35 47 
197 47 6 26 17 
198 26 46 17 16 
199 15 25 45 24 
200 13 23 14 52 
201 33 34 42 45 
202 40 39 30 64 
203 44 63 43 34 
204 11 21 12 51 
205 60 11 21 20 
206 10 20 11 50 
207 9 19 61 18 
208 18 2 58 9 
209 37 53 27 28 
210 41 42 57 32 
211 54 30 40 31 
212 64 21 12 22 
213 31 32 41 52 
214 41 62 40 31 
215 15 25 16 45 
216 62 13 23 22 
217 45 42 24 55 
218 51 39 60 21 
219 48 33 57 15 
220 26 47 44 56 
221 23 62 41 52 
222 49 3 2 58 
223 20 38 50 59 
224 12 30 64 54 
225 31 62 13 52 
226 38 51 60 11 
227 42 45 24 33 
228 24 33 45 15 
229 42 24 57 33 
230 24 57 33 15 
231 43 63 25 34 
232 32 23 52 14 
233 30 51 12 39 
234 39 51 12 21 
235 3 49 2 4 
236 29 50 11 38 
237 3 2 58 1 
238 36 58 9 18 
239 61 9 18 36 
240 38 51 11 29 
241 39 12 64 21 
242 12 39 64 30 
243 34 25 45 16 
244 23 32 52 41 
245 57 23 41 32 
246 60 38 11 20 
247 38 50 11 20 
248 61 9 27 53 
249 27 9 61 36 
250 27 37 61 53 
251 61 37 27 36 
252 9 58 27 49 
253 9 27 58 36 
254 3 27 58 49 
255 3 58 27 36 
256 32 48 23 14 
257 32 23 48 57 
258 15 23 48 14 
259 15 48 23 57 
260 7 56 6 5 
261 26 6 56 5 
262 26 56 6 47 
263 42 55 34 43 
264 42 34 55 45 
265 25 34 55 43 
266 25 55 34 45 
267 26 44 46 63 
268 34 44 46 35 
269 34 46 44 63 
270 20 10 59 50 
271 20 59 10 19 
272 10 28 59 50 
273 38 28 59 37 
274 38 59 28 50 
275 37 53 19 61 
276 9 19 53 61 
277 9 53 19 10 
278 40 54 22 64 
279 12 22 54 64 
280 12 54 22 13 
281 26 63 16 25 
282 26 16 63 46 
283 34 16 63 25 
284 34 63 16 46 
285 44 8 56 47 
286 44 56 8 7 
287 6 56 8 47 
288 6 8 56 7 
289 54 31 22 13 
290 54 22 31 40 
291 62 22 31 13 
292 62 31 22 40 
293 59 28 19 37 
294 59 19 28 10 
295 53 19 28 37 
296 53 28 19 10 
297 47 44 17 26 
298 47 17 44 35 
299 46 17 44 26 
300 46 44 17 35 
$EndElements
